<?xml version="1.0" encoding="UTF-8" standalone="no"?>
<!DOCTYPE svg  PUBLIC '-//W3C//DTD SVG 1.1//EN'  'http://www.w3.org/Graphics/SVG/1.1/DTD/svg11.dtd' [
	<!ENTITY stroke_color "#010101">
	<!ENTITY fill_color "#FFFFFF">
]>
<svg width="71" height="71" xmlns="http://www.w3.org/2000/svg">
 <!-- Created with Method Draw - http://github.com/duopixel/Method-Draw/ -->
 <g>
  <title>background</title>
  <rect fill="none" id="canvas_background" height="73" width="73" y="-1" x="-1"/>
  <g display="none" overflow="visible" y="0" x="0" height="100%" width="100%" id="canvasGrid">
   <rect fill="url(#gridpattern)" stroke-width="0" y="0" x="0" height="100%" width="100%"/>
  </g>
 </g>
 <g>
  <title>Layer 1</title>
  <path id="svg_1" d="m35.225323,3.391264c-17.675957,0 -32.002021,14.251698 -32.002021,31.835585c0,17.582191 14.326065,31.835392 32.002021,31.835392c17.674225,0 32.001888,-14.253201 32.001888,-31.835392c0,-17.583887 -14.327663,-31.835585 -32.001888,-31.835585zm6.952984,47.756464c-0.174576,0.140652 -0.403053,0.286068 -0.231663,0.452972c0.171215,0.172165 -0.198284,0.287395 -0.198284,0.372643s0.228382,0.539864 0.1143,0.737217c-0.1143,0.200329 -0.200031,0.487877 -0.285763,0.658371c-0.085461,0.168575 -0.28894,0.339149 -0.228512,0.596573c0.053932,0.25383 -0.229851,0.16861 -0.229851,0.424397c0,0.254131 0.255157,0.142002 0.198059,0.456238c-0.053608,0.314266 -0.198059,0.399586 -0.198059,0.623348c0,0.229038 0.141006,0.541336 0.141006,0.626621s-0.141006,0.372662 -0.341114,0.596512c-0.203224,0.227287 -0.340893,0.371067 -0.317337,0.509922c0.031761,0.142063 0.229977,0.315716 0.201511,0.402618c-0.028629,0.081947 -0.285526,0.367657 -0.255386,0.568398c0.030319,0.197052 0.283852,0.115231 0.341114,0.253796c0.057003,0.142078 -0.341114,0.257553 -0.173126,0.401222c0.173126,0.138569 0.403332,0.110088 0.344303,0.454525c-0.042,0.245667 0.141273,0.35754 0.277279,0.43457c-1.962025,0.48288 -4.003227,0.770191 -6.114868,0.770191c-14.003609,0 -25.393269,-11.33025 -25.393269,-25.261013c0,-4.542238 1.226334,-8.795195 3.341384,-12.480234c0.174584,-0.091768 0.302225,-0.150301 0.376113,-0.135263c0.144393,0.028482 0.174762,0.227251 0.403299,0.284004c0.230128,0.058468 0.429953,-0.170471 0.572688,-0.255522c0.141107,-0.085314 0.255496,-0.426334 0.112715,-0.397808c-0.142799,0.028276 -0.515718,0 -0.515718,0s0.403003,-0.229021 0.403003,-0.37101s0.055629,-0.369272 0.284126,-0.456259c0.226756,-0.086987 0.226756,-0.030169 0.083724,0.312553c-0.142735,0.340799 0.289173,0.198782 0.458681,0.056717s0.285803,-0.028486 0.598022,-0.228893c0.315817,-0.19878 0.315817,-0.312567 0.487278,-0.312567c0.171453,0 0.487059,0.312567 0.658449,0.198965c0.169722,-0.113762 0.658472,0.142096 0.944281,0.142096c0.283823,0 1.199425,0.370945 1.374001,0.370945c0.171385,0 0.687092,0.197117 0.715761,0.566431c0.028378,0.371016 0.198092,0.342777 0.369503,0.342777s0.57275,0.142002 0.57275,0.283958c0,0.142101 -0.114061,0.711855 0.171402,0.853825c0.283871,0.140547 0.544409,0.371008 0.658484,0.314293c0.114395,-0.056824 0,-0.511345 -0.141041,-0.569746c-0.142805,-0.056828 -0.058744,-0.255892 -0.114107,-0.369352c-0.057331,-0.112059 0.171198,-0.112059 0.256868,0.08523c0.085709,0.198824 0.315857,0.568108 0.458694,0.568108c0.141043,0 0.45858,0.342476 0.369503,0.541533c-0.085747,0.198776 0.085749,0.484468 0.344555,0.484468c0.255159,0 0.571001,0.397861 0.686855,0.426279c0.11438,0.028318 0.257053,0.17207 0.257053,0.257324c0,0.086916 0.14283,0.56979 0.14283,0.768803c0,0.197098 -0.087406,0.994375 -0.115803,1.306667s0.228434,0.855726 0.514009,1.139782c0.283796,0.284084 0.542618,0.825603 0.713793,0.939369c0.174841,0.113504 0.285789,0.427696 0.54435,0.399218c0.257164,-0.02824 0.42832,0.170532 0.658487,0.570007c0.228409,0.397598 0.456934,1.051168 0.630035,1.107952c0.17137,0.056707 0.456947,0.255514 0.312481,0.397505c-0.141111,0.140602 -0.369555,0.456291 -0.112633,0.456291c0.257099,0 0.342829,-0.142006 0.544378,0.115459c0.198082,0.25388 0.456903,0.397575 0.426502,0.569725c-0.028368,0.168854 0.228544,0.22567 0.342842,0.254143c0.115862,0.028214 0.372992,0.541527 0.629868,0.314259c0.258816,-0.228958 -0.340868,-0.568401 -0.514006,-0.71545c-0.172848,-0.13863 0,-0.4529 -0.401342,-0.76543c-0.401632,-0.313934 -0.344519,-0.541279 -0.630102,-0.768543c-0.285507,-0.229006 -0.512276,-0.42807 -0.228424,-0.62676c0.285507,-0.200512 0.314199,0.19869 0.428253,0.454565c0.116064,0.254032 0.714094,0.768803 0.971214,0.99435c0.258547,0.228996 0.718977,1.026028 0.859987,1.026028s0.542646,0.454632 0.542646,0.454632s0.226824,0.369289 0.141029,0.483028c-0.085663,0.113529 0.117613,0.541313 0.317635,0.65506c0.198103,0.113514 1.001043,0.481163 1.115404,0.539791c0.115837,0.060173 0.34259,0.484531 0.658482,0.484531c0.314171,0 0.544365,0.031597 0.630062,0.116898c0.085678,0.081886 0.34087,0.42461 0.515709,0.227283c0.171421,-0.202126 0.198128,-0.287415 0.45863,-0.287415c0.256889,0 0.369549,0.200741 0.51226,0.342743c0.142769,0.141998 0.544342,0.514656 0.744202,0.486221c0.199852,-0.028503 0.458618,0.22723 0.601452,0.140358s0.371197,0.053532 0.483875,0.113747c0.119202,0.056702 0.515701,0.257179 0.488811,0.594841c-0.028717,0.344173 0.226643,0.427769 0.401535,0.513039c0.171154,0.085285 0.399609,0.284081 0.545753,0.42778c0.141346,0.137192 0.453625,0.16711 0.540947,0.254082c0.085754,0.085209 0.142803,0.255581 0.401665,0.113529c0.255402,-0.140343 0.201534,-0.397579 0.201534,-0.397579s0.283745,-0.057003 0.42828,0.058449c0.141289,0.108711 0.228523,0.481182 0.31588,0.538109c0.084042,0.05682 0.253735,0.484531 0.13932,0.792027c-0.112385,0.31926 -0.083771,0.626801 -0.19978,0.626801c-0.114132,0 -0.255421,0.372646 -0.430054,0.457905c-0.167999,0.085289 -0.626629,0.484558 -0.597923,0.62653c0.028381,0.138908 0.287186,0.564987 0.228378,0.767117c-0.055534,0.198753 -0.426815,0.427746 -0.339401,0.740337c0.083946,0.31591 0.687122,0.4011 0.710655,0.683479c0.031815,0.287529 0.460415,0.912476 0.517429,1.196602c0.055416,0.284046 0.542625,0.594906 0.542625,0.991028c0,0.402576 0.686935,0.658352 0.829906,0.683491c0.139328,0.028248 0.401325,0.287403 0.599747,0.372761s0.371166,0.253746 0.51228,0.484463s0.115803,0.571468 0.115803,0.65501c0,0.085304 -0.085716,0.962723 -0.171173,1.475777c-0.087353,0.514767 0.110687,0.913975 -0.058994,1.057636zm-18.478825,-26.462599c0.085649,0.028479 0.258774,0.200739 0.344521,0.200739c0.087151,0 0.514009,0.340805 0.629768,0.45455c0.116087,0.113541 0.116087,0.427753 -0.028395,0.456032s-0.230146,-0.314074 -0.258766,-0.456032c-0.028418,-0.142263 -0.314211,-0.142263 -0.457016,-0.227308c-0.144463,-0.085238 -0.463476,-0.506464 -0.230112,-0.42798zm36.868858,11.439066c-0.317661,0.397751 -0.285542,0.594814 -0.430061,0.626686c-0.141258,0.028599 0.14452,0.142105 0.198154,0.424473c0.048771,0.245598 -0.142799,0.491203 0.139362,0.717098c-1.070011,10.117043 -8.169163,18.472717 -17.650635,21.437256c-0.015076,-0.024845 -0.04203,-0.055023 -0.045406,-0.075066c-0.06044,-0.170547 -0.06044,-0.509636 0.139565,-0.623409c0.20155,-0.116947 0.686932,-0.51133 0.799515,-0.59663c0.114391,-0.086887 0.287243,-0.484482 0.201557,-0.541256c-0.083996,-0.056988 -0.51231,0 -0.572784,-0.085304c-0.057056,-0.085171 -0.057056,-0.200661 0.228527,-0.397747c0.285465,-0.200516 0.429943,-0.48616 0.544334,-0.569756c0.114067,-0.085289 0.340866,-0.25753 0.42823,-0.457958c0.084053,-0.197353 -0.089073,-0.085232 -0.258793,-0.085232s-0.25856,-0.310875 -0.25856,-0.454586s0.429989,0.058441 0.747551,0.115231c0.314209,0.05188 0.169743,-0.143761 0.141068,-0.312271c-0.028652,-0.170609 0.057076,-0.456291 0.230232,-0.371098c0.167973,0.08503 1.054882,-0.028488 1.169243,-0.056976c0.114105,-0.028217 0.428345,-0.539558 0.542408,-0.683537c0.116112,-0.143673 0.14135,-0.282314 0,-0.369297c-0.144424,-0.086685 -0.31559,-0.402657 -0.371189,-0.482834c-0.057114,-0.090351 -0.085728,-0.599922 -0.028397,-0.745323c0.055351,-0.136955 0,0.8255 0.399586,0.942455c0.403313,0.113754 0.630161,0.170467 1.001389,-0.170383c0.372913,-0.340996 0.656757,-0.569939 0.68708,-0.795525c0.028408,-0.229 0.114052,-0.457977 0.256893,-0.539864c0.144405,-0.085247 0.230171,0.225594 0.401535,-0.14201c0.171436,-0.3727 0.342854,-0.344151 0.51564,-0.655121c0.169838,-0.315823 -0.28714,-0.711742 0.052303,-0.940712c0.345955,-0.22554 0.947319,-0.511547 0.947319,-0.511547s0.171402,-0.084961 0.514038,-0.170277c0.342857,-0.083565 0.714081,-0.030163 0.828194,-0.197296c0.114372,-0.173752 0.230198,-0.541344 0.401588,-0.740326c0.172871,-0.202217 0.371296,-0.513058 0.285534,-0.655121c-0.085693,-0.141975 0.228516,-0.770489 0.19978,-0.939045c-0.028404,-0.170506 -0.285473,-0.571678 0.144466,-0.912476s0.885502,-0.855755 0.915684,-0.994385c0.026882,-0.142006 0.371208,-0.740337 0.339371,-1.026031c-0.026886,-0.282387 -0.339371,-0.62513 -0.539246,-0.712109c-0.203239,-0.081841 -0.630047,-0.110054 -0.801186,-0.337357s-0.658764,-0.456306 -0.831619,-0.399529c-0.169697,0.056767 -0.457035,0.112137 -0.687084,-0.031666c-0.228493,-0.138859 -0.598118,-0.314167 -0.740795,-0.426304c-0.146141,-0.110088 -0.51593,-0.197136 -0.687103,-0.197136s-0.142769,-0.115078 -0.40168,0.22567c-0.256844,0.344234 0,0.457981 -0.456875,0.399475c-0.460354,-0.053673 0.053905,-0.083553 0.315853,-0.42458c0.253761,-0.339088 -0.030334,-0.541557 -0.315853,-0.454559c-0.287228,0.085232 -0.087433,0.257473 -0.544334,0.342705c-0.455254,0.083611 -0.455254,-0.202469 -0.169514,-0.257473c0.285572,-0.056759 0.799519,-0.312496 0.799519,-0.424324c0,-0.115475 -0.057022,-0.429459 -0.287167,-0.429459s-0.171413,-0.282623 -0.512352,-0.650219c-0.344528,-0.372734 -0.772831,-0.600014 -1.118797,-0.544662c-0.339424,0.056786 -0.598263,0.141972 -0.771088,-0.167141c-0.171413,-0.315979 -0.371284,-0.372715 -0.48904,-0.541542c-0.112431,-0.170506 -0.399582,0 -0.485378,-0.085258s-0.08569,-0.085247 -0.08569,-0.085247s-0.372967,0.085247 -0.169746,-0.170563c0.198437,-0.25716 0.283871,-0.740326 0.198437,-0.711716c-0.084011,0.028481 -0.230206,0.429394 -0.371323,0.401184c-0.139572,-0.02853 -0.030334,-0.08873 -0.315826,-0.257481c-0.287243,-0.170597 -0.742481,-0.028599 -0.742481,0.113762c0,0.143719 -0.142735,0.257236 -0.142735,0.257236s-0.08572,-0.083603 -0.171471,-0.257236c-0.087353,-0.170586 -0.487228,-0.199089 -0.687088,-0.028538c-0.198139,0.172256 -0.314159,-0.427765 -0.456913,-0.427765s-0.426655,0.14201 -0.572823,0.40266c-0.139606,0.25404 -0.08226,0.623341 -0.201756,0.594887c-0.110645,-0.02829 -0.139347,-0.509621 -0.110645,-0.683605c0.026688,-0.171932 0.340839,-0.454552 0.110645,-0.51125c-0.226784,-0.056789 -0.570999,0.283985 -0.710396,0.312569c-0.144482,0.028454 -0.43021,0.22728 -0.60136,0.457924c-0.1698,0.225559 -0.255432,0.367542 -0.430305,0.452816c-0.169456,0.085335 -0.424881,0 -0.367809,-0.085274c0.055595,-0.085186 -0.488773,-0.396095 -0.574444,-0.284027c-0.087437,0.113571 -0.341175,0.198841 -0.59803,0.315739c-0.25885,0.113735 -0.489044,-0.143738 -0.544338,-0.257256s-0.174599,-0.140339 -0.199841,-0.513031c-0.028698,-0.367607 0.058777,-0.768818 0.142708,-0.994389c0.084057,-0.227253 -0.429886,-0.683514 -0.630024,-0.656738c-0.19978,0.033333 -0.401295,0.230686 -0.599735,0.198788c-0.201466,-0.02491 -0.114059,-0.081852 -0.428265,-0.081852c-0.315884,0 -0.057053,-0.055119 0,-0.314041c0.055344,-0.254059 -0.114384,-0.598217 0.20155,-0.825516c0.312443,-0.227261 0.201504,-0.768784 0,-0.795685c-0.20155,-0.029903 -0.574474,0.085308 -0.82991,0.056812c-0.255211,-0.029911 -0.456959,0.200794 -0.371243,0.454571c0.085697,0.255726 -0.142742,0.426311 -0.23019,0.401165c-0.085701,-0.030216 -0.198101,-0.172218 -0.514008,0.056759c-0.312462,0.225609 -0.428226,0.138687 -0.742462,-0.115177c-0.314144,-0.2575 -0.65844,-0.511356 -0.715794,-0.910847c-0.057007,-0.397762 -0.087112,-0.797016 0.028702,-1.024372c0.112659,-0.228989 0.112659,-0.625027 -0.057083,-0.683479c-0.17141,-0.055302 0.19812,-0.339371 0.39819,-0.396175c0.203209,-0.056702 0.515713,-0.314156 0.572792,-0.427708c0.057011,-0.113811 0.342583,-0.086962 0.656693,-0.086962c0.314217,0 0.371273,0 0.687138,0.170507c0.314171,0.170288 0.371284,-0.085215 0.371284,-0.170507c0,-0.086969 0.114346,-0.257465 0.458611,-0.228941c0.342613,0.028439 0.826519,-0.113533 0.915577,-0.028524s0.255226,0.427973 0.426674,0.314209c0.17477,-0.111839 0.230099,-0.314209 0.288872,0.030218c0.055614,0.339138 0.198406,0.853786 0.458672,0.939091c0.255432,0.085243 0.114376,0.426296 0.369572,0.454548c0.251961,0.028534 0.374645,-0.539852 0.287182,-0.738651c-0.087154,-0.197075 -0.258583,-0.795355 -0.401321,-0.937593c-0.141056,-0.142029 -0.141056,-0.513006 0.13932,-0.626524c0.287216,-0.113802 0.974335,-0.683525 1.172508,-0.852417c0.201736,-0.171923 0.744423,-0.31562 0.574703,-0.542961c-0.171375,-0.227304 -0.228458,-0.367834 -0.228458,-0.541441s0.171406,-0.113808 0.256821,0s0.42691,-0.170567 0.341156,-0.312544c-0.083996,-0.140419 -0.05703,-0.339426 0.142757,-0.31259c0.201534,0.0285 0.255466,-0.143673 0.173141,-0.257231c-0.087376,-0.113796 0.199818,-0.255793 0.399609,-0.199009c0.203472,0.056984 0.715775,-0.028303 0.801498,-0.142096c0.084072,-0.113501 -0.171432,-0.228958 -0.171432,-0.456207c0,-0.227297 0.341164,-0.427813 0.544407,-0.456255c0.199753,-0.028255 0.455204,0 0.485344,-0.085056c0.026913,-0.085192 0.315861,-0.31254 0.341087,-0.113766c0.031826,0.198822 0,0.541536 0.23019,0.541536c0.228516,0 0.510658,-0.255709 0.598026,-0.282343c0.084049,-0.028528 0.629848,-0.142284 0.744175,-0.170506c0.115837,-0.028488 0.799503,-0.086952 0.715496,-0.285732c-0.085434,-0.197367 -0.171177,-0.396179 -0.258591,-0.481373c-0.08569,-0.085281 -0.169693,0.028519 -0.287205,0.170506c-0.112633,0.14208 -0.314144,0.14208 -0.369564,0.028311c-0.05727,-0.111891 0.026718,-0.452915 -0.171391,-0.340889c-0.203232,0.113512 -0.228474,0.227266 -0.346016,0.170591c-0.114273,-0.057079 -0.226986,-0.255772 -0.226986,-0.255772s0.28413,-0.140381 0.083984,-0.399551c-0.198101,-0.255468 -0.486969,-0.198765 -0.770866,-0.055098c-0.285786,0.140388 -0.260479,0.112152 -0.60141,0.197348s-0.514286,0.170328 -0.514286,0.170328s0.460396,-0.282347 0.657021,-0.454596c0.201572,-0.170258 0.460381,-0.257259 0.62986,-0.427727c0.173111,-0.170593 0.62841,0.085281 0.62841,0.085281s0.231815,-0.227289 0.231815,-0.085281s-0.060398,0.512959 0.110989,0.512959c0.174522,0 0.65844,-0.227259 0.46347,-0.287395c-0.204971,-0.056755 0.283836,0 0.482174,-0.141947c0.20155,-0.142025 0.426659,-0.142025 0.542686,-0.197161c0.115841,-0.057049 0.203243,-0.312525 0.401283,-0.312525c0.203274,0 0.285812,0.255476 0,0.426069s-0.314095,0.598234 -0.458591,0.711994c-0.14106,0.113485 -0.057011,0.257301 0.173149,0.227262c0.228439,-0.02845 0.426548,0.030039 0.628338,-0.02845s0.315853,0.058489 0.371258,0.143669c0.057003,0.085308 0.228439,-0.08518 0.228439,-0.08518s0.371235,-0.086973 0.487057,0.056734c0.116028,0.138912 0.201771,-0.086773 0.116028,-0.229012c-0.085693,-0.140276 -0.201752,-0.282372 -0.285706,-0.454517c-0.085491,-0.172033 -0.20155,-0.228739 -0.428349,-0.172033c-0.228455,0.056797 -0.285542,-0.056705 -0.428257,-0.138607c-0.142776,-0.088659 -0.260551,0.113527 -0.142776,-0.088659c0.115776,-0.197342 0.1712,-0.25581 0.256855,-0.427708c0.085724,-0.170555 0.4604,-0.483091 0.085724,-0.566637c-0.371216,-0.086998 -0.488777,-0.142023 -0.54435,-0.312628c-0.057114,-0.171907 -0.485306,-0.484486 -0.598,-0.484486c-0.117538,0 -0.513977,0 -0.544109,-0.14192c-0.028656,-0.142122 -0.314228,-0.456358 -0.458645,-0.598347c-0.139645,-0.141975 -0.685413,-0.768843 -0.772858,-0.825533c-0.085701,-0.057045 -0.199768,-0.028545 -0.45694,0.31255c-0.255398,0.344084 -0.48539,0.400908 -0.68713,0.31566c-0.199825,-0.085323 -0.228451,-0.056744 -0.424915,-0.284084c-0.204823,-0.228907 0.198181,-0.257206 0.112411,-0.399456c-0.088821,-0.140358 -0.544094,-0.19882 -0.829868,-0.227283c-0.287178,-0.028219 -0.486988,-0.342514 -0.917027,-0.370977c-0.426811,-0.028286 -0.942501,0.056932 -1.085278,0.056932c-0.141052,0 -0.141052,0.20052 -0.19812,0.513113c-0.059044,0.31251 0.19812,0.397514 -0.059044,0.456228c-0.255146,0.056723 -0.372887,0.085272 -0.114021,0.198784c0.257065,0.113525 0.599606,0.569754 0.599606,0.569754s0,0.255722 -0.201481,0.397766c-0.198391,0.142033 -0.40155,0.285788 -0.514015,0.116886c-0.116085,-0.173586 -0.428577,-0.143667 -0.341148,0.028498c0.084064,0.170551 0.255474,0.255892 0.255474,0.426077c0,0.168869 0.258533,0.596674 0.085674,0.738651c-0.171413,0.142286 -0.36977,0.030197 -0.512535,0.057018s-0.28896,-0.227303 -0.171173,-0.284077c0.112419,-0.056934 -0.032085,-0.484747 -0.032085,-0.484747s-0.340851,0.484747 -0.314167,0.227289c0.030369,-0.255737 -0.141037,-0.284086 -0.141037,-0.483072c0,-0.200491 -0.173161,-0.285704 -0.426662,-0.228783c-0.260429,0.056833 -0.572945,-0.086927 -1.061676,-0.172142c-0.48386,-0.085325 -0.685493,-0.140303 -1.085323,-0.342525c-0.401306,-0.19903 -0.544109,-0.056961 -0.744171,-0.02845c-0.199787,0.02845 -0.114151,-0.397846 -0.372963,-0.452976c-0.255177,-0.058401 -0.398178,0.05513 -0.455261,-0.315832c-0.057011,-0.367651 0.085712,-0.454584 0.714073,-0.853882c0.629833,-0.399523 0.542679,-0.56996 1.029697,-0.626787c0.48563,-0.056726 0.715557,0.056828 0.715557,-0.085182s0.11438,-0.711851 0.11438,-0.427782s0.577839,0.302418 0.317581,0.503084c-0.255444,0.198767 -0.114361,0.22702 0.087128,0.22702c0.20179,0 0.571316,-0.198738 0.571316,-0.198738s0.458633,-0.2005 0.572754,-0.028282c0.116051,0.170286 0.116051,0.340767 0.315884,0.340767s0.628357,-0.227299 0.257149,-0.425999c-0.371487,-0.200729 -0.600006,-0.172245 -0.828213,-0.3995s-0.173111,-0.141989 -0.430195,-0.085316c-0.255157,0.05681 -0.255157,-0.085272 -0.342632,-0.085272s-0.230167,0.057062 -0.287205,-0.056719c-0.055687,-0.115202 0.031776,-0.143677 0.318974,-0.143677c0.284088,0 0.628345,0.086912 0.628345,0.086912s0.340919,-0.115452 0.426697,-0.143751c0.085617,-0.028437 0.544304,-0.085222 0.458599,-0.339281c-0.088856,-0.255581 -0.372982,-0.255581 -0.458599,-0.340805s0.171371,-0.197319 0.315834,-0.257517c0.142765,-0.056726 0.54266,0 0.54266,0s0.258602,0.028534 0.258602,-0.085218s-0.062233,-0.255594 0.112633,-0.170305s0,0.340794 0.25716,0.284058c0.255138,-0.056793 0.313896,0 0.455196,0.086914c0.142765,0.085281 -0.02861,0.426083 -0.169693,0.482874c-0.142807,0.055317 -0.37125,0.168812 -0.057064,0.197308c0.317387,0.031652 0.5424,0.031652 0.5424,0.031652s0.201782,-0.200491 0.287457,-0.370951c0.083778,-0.170586 0.22998,-0.056803 0.340923,0c0.115765,0.054993 0.544361,0.141991 0.144485,0.255747c-0.403107,0.115204 -0.487057,0.257225 -0.572819,0.3992c-0.083958,0.14208 -0.117733,0.227346 -0.48724,0.14208c-0.37466,-0.085052 -0.572788,-0.056812 -0.658478,0.085266c-0.08577,0.140568 -0.02866,0.598225 0.117485,0.541445c0.137863,-0.056683 0.284081,-0.056683 0.455265,-0.113506c0.171398,-0.056953 0.858524,0.056824 1.028221,0.028294c0.171158,-0.028294 0.460411,0.284008 0.545815,0.227312c0.085789,-0.056801 0.258881,0.113745 0.428585,0.227268c0.171135,0.115448 0.114048,-0.255589 0.426559,-0.028219c0.317596,0.228748 0.14275,0.228748 0.317596,0.228748c0.166298,0 0.540943,0.02844 0.540943,0.02844s0.030071,-0.282341 0.317356,-0.22897c0.285809,0.058413 0.539261,0.370983 0.510807,0.140316c-0.026936,-0.225613 0.028454,-0.395905 -0.198338,-0.566366c-0.228474,-0.170567 -0.599754,-0.284088 -0.658493,-0.370993c-0.057022,-0.085258 -0.114128,-0.199036 -0.028614,-0.255848c0.085678,-0.055029 0.487286,0.028488 0.714024,0.173891c0.228531,0.142069 0.428375,0.284052 0.599781,0.170527c0.169655,-0.113714 0.374634,-0.170527 0.458576,-0.257454c0.08403,-0.086964 0.285595,-0.340761 0.285595,-0.340761s-0.860043,-0.112129 -0.971035,-0.255821c-0.115776,-0.143713 -0.517353,-0.342491 -0.631725,-0.342491s-0.426601,0.198778 -0.54073,-0.085285s-0.114307,-0.626732 -0.23185,-0.655226c-0.109268,-0.028275 -1.313793,-0.198759 -1.483521,-0.28406c-0.171124,-0.085272 -0.858273,-0.285803 -1.117096,-0.42775s-0.62986,-0.34082 -0.856533,-0.34082c-0.228477,0 -1.172771,0.113531 -1.345615,0.085066c-0.17144,-0.028351 -0.685452,0.056932 -0.887199,0.085264c-0.199814,0.028488 0.258801,0.397743 -0.169426,0.484701c-0.4286,0.085312 -0.371304,0.142025 -0.285797,-0.285742c0.084003,-0.426329 -0.288918,-0.541443 -0.658504,-0.369289c-0.371223,0.17033 -0.972637,0.284077 -0.829853,0.482767c0.142712,0.200531 -0.026752,0.344202 0.257111,0.541588c0.287266,0.198753 0.403019,0.255568 0.771126,0.227272c0.374615,-0.028519 0.745918,0.055059 0.745918,0.055059s0,0.344198 -0.141365,0.399534c-0.142754,0.056734 -0.37122,0.056734 -0.429951,0.227289c-0.055393,0.170246 -0.342613,0.255499 -0.342613,0.170246s0.144417,-0.369307 -0.057316,-0.511305c-0.19809,-0.143747 -0.256859,-0.172007 -0.485386,-0.028299c-0.23011,0.142069 -0.255379,0.198803 -0.372887,-0.030178c-0.114365,-0.227287 -0.456959,-0.426083 -0.456959,-0.426083s-0.230206,-0.282379 -0.401546,-0.424593c-0.169548,-0.143707 -0.483688,-0.115225 -0.51577,0.028467c-0.028378,0.1404 0.057087,0.282398 0.171425,0.539862c0.115826,0.257275 0.230206,0.738607 0.030094,0.768776c-0.201519,0.03001 -0.229897,0.058495 -0.429939,0.115229c-0.199848,0.05678 -0.28553,-0.085218 -0.28553,-0.314188s-0.089146,-0.426067 -0.028641,-0.513065c0.05724,-0.08527 -0.229923,0.060129 -0.515774,0c-0.287182,-0.053389 -0.513954,0.115227 -0.230148,0.202141c0.287464,0.085266 0.346256,0.424692 0.087444,0.509884c-0.258602,0.086752 -1.2313,0 -1.547142,0s-0.769405,0.086752 -0.85853,-0.085192c-0.085712,-0.170532 0.260536,-0.2826 0.458639,-0.2826c0.200062,0 0.799801,0.026754 1.028255,-0.284103c0.228455,-0.314251 -0.285831,-0.370943 -0.512558,-0.370943c-0.230133,0 -0.403,-0.085287 -0.658447,-0.339134c-0.260258,-0.255793 0.171385,-0.426275 0.114357,-0.541494c-0.057261,-0.113766 -0.344528,-0.030165 -0.599983,-0.030165c-0.256851,0 -0.658421,-0.197123 -0.658421,0.030165c0,0.228973 0.315836,0.880629 0.116003,0.73863c-0.201712,-0.140368 -0.173113,-0.340872 -0.315878,-0.513058c-0.142706,-0.170561 -0.369495,-0.141987 -0.658388,-0.113756c-0.2841,0.028481 -0.769491,0.113756 -0.913933,0.085255c-0.141081,-0.028296 -0.028629,-0.028296 -0.342833,-0.170292c-0.312477,-0.142256 -0.458603,-0.113747 -0.686914,-0.255779c-0.226986,-0.147081 -0.02689,-0.202188 -0.426785,-0.230656c-0.399927,-0.028255 -0.371305,0.197351 -0.771126,0.141985c-0.401352,-0.056719 -0.515703,0.028582 -0.915327,0c-0.401644,-0.028233 -0.599979,-0.056719 -0.658733,0.143696c-0.055424,0.199038 -0.172865,0.539806 -0.34429,0.539806c-0.169718,0 -0.371227,0.200531 0.171425,0.228998c0.544109,0.028578 0.231619,0.282398 0.715475,0.255848c0.487331,-0.028492 0.917307,-0.028492 1.03145,-0.255848c0.114365,-0.228998 0.200052,-0.228998 0.257084,-0.143692c0.05537,0.086958 0.485332,0.59663 0.485332,0.59663s0.287502,0.227274 0.401659,0.284c0.112623,0.05707 -0.114157,0.314251 -0.3426,0.172256c-0.228477,-0.143723 -0.658707,-0.112059 -0.829905,-0.254126c-0.171385,-0.143726 -0.94426,-0.143726 -1.14575,-0.115208c-0.198118,0.028296 -0.542686,-0.085228 -0.658499,-0.085228c-0.110897,0 -0.485556,0.285702 -0.485556,0.285702s-0.142776,-0.230703 -0.226805,-0.34421c-0.085632,-0.113728 -0.230167,0.113506 -0.344288,0.142086c-0.114368,0.028488 -0.456984,-0.227335 -0.801426,-0.113747c-0.34259,0.113747 -0.228519,0.227255 -0.715597,0.198954s-0.59794,-0.113787 -0.771088,-0.085207c-0.17288,0.028488 -0.17288,0.028488 -0.17288,0.028488s0.028404,0.113512 -0.169687,0.227308c-0.200071,0.115187 -0.346245,0.257181 -0.489029,0.086678c-0.141066,-0.172007 -0.226732,-0.172007 -0.312466,-0.200474c-0.088842,-0.028492 -0.260275,-0.17058 -0.629801,-0.087002c-0.372967,0.087002 -0.944275,-0.111795 -1.056671,-0.111795c-0.089123,0 -0.688835,-0.033581 -1.081909,-0.071983c4.644958,-5.020054 11.282269,-8.191829 18.668743,-8.191829c4.685318,0 9.064583,1.290064 12.835976,3.499336c-0.256859,0.158718 -0.702133,0.131862 -0.854897,0.049998c-0.171398,-0.093475 -0.347698,-0.170318 -1.044994,-0.133556c-0.69875,0.040081 -1.464817,0.267342 -1.310394,0.496319c0.158089,0.22729 -0.312473,0.360849 -0.433384,0.247338c-0.120907,-0.113779 -0.680321,0.130195 -0.645069,0.360814c0.035439,0.227346 -0.085522,0.492997 -0.386303,0.436208c-0.293987,-0.060122 -0.504074,0.130486 -0.520847,0.319359c-0.015057,0.19029 -0.680267,0.322474 -0.730576,0.322474c-0.053902,0 -0.90733,-0.018416 -0.594887,0.207232c0.213486,0.152122 0.329239,0.060106 0.594887,0.115206c0.261982,0.056964 0.47036,0.474579 0.609707,0.531548c0.136154,0.056812 0.329224,0 0.414864,-0.113773c0.089207,-0.113514 0.210052,-0.512978 0.210052,-0.512978s0,0.379444 0.213413,0.456291c0.20982,0.076736 0.728874,-0.056828 0.870155,-0.036793c0.141117,0.016739 0.962498,0.13195 1.184135,0.244019c0.228512,0.113499 0.784779,0.19059 0.942566,0.436222c0.156113,0.247278 0.176304,1.101122 0.262035,1.196541c0.087364,0.09346 0.383099,-0.304373 0.452076,-0.399542c0.066986,-0.095148 0.435024,-0.038385 0.557743,0.091784c0.124287,0.133802 0.401299,0.45624 0.38625,0.590111c-0.02187,0.1353 -0.072388,0.340832 -0.176533,0.267403c-0.105637,-0.075167 -0.278721,-0.055128 -0.211494,-0.20895c0.070438,-0.150518 0.105858,-0.47463 -0.032013,-0.47463c-0.141079,0 -0.261986,0 -0.261986,0s-0.265396,-0.076811 -0.438477,0.207253s-0.033493,0.569799 0.08736,0.569799s0.404755,0 0.404755,0.075357c0,0.076746 -0.298874,0.304035 -0.280396,0.43762c0.01844,0.133886 0.241798,0.586718 0.315857,0.683584c0.068665,0.093685 0.435104,0.188803 0.53754,0.210564c0.107281,0.016708 -0.243774,0.036751 -0.154648,0.168831c0.089142,0.133554 0.225082,0.454582 0.41663,0.531376c0.191544,0.076754 0.734203,0.416193 0.799519,0.569796c0.070683,0.150505 0.489021,-0.113518 0.576469,-0.133562c0.088848,-0.018353 0.070423,0.397829 0.315594,0.417862c0.242096,0.018343 0.329231,-0.038454 0.539299,-0.210619s0.158005,-0.397827 0.173046,-0.568302c0.020164,-0.172009 0,-0.302437 0.230206,-0.247438c0.228481,0.057064 0.347668,-0.040056 0.329231,-0.228683c-0.016731,-0.190554 -0.208328,-0.417828 0.154442,-0.474575c0.368061,-0.057032 0.559387,-0.30266 0.78635,-0.30266c0.226845,0 0.856609,0.093716 0.922188,0c0.07066,-0.093491 0.367867,-0.53306 0.559391,-0.549757c0.147888,-0.014906 0.493885,-0.046822 0.84837,-0.092001c3.482471,4.129534 5.637783,9.383604 5.884651,15.124092c-0.258553,0.349243 -0.025131,0.668377 0.047176,0.89394c0.001648,0.065262 0.009926,0.127045 0.009926,0.193924c0,0.297394 -0.035206,0.588158 -0.045403,0.884014c-0.001472,0.005146 -0.001472,0.008453 -0.006542,0.013332zm-21.393688,-9.475393c-0.14101,0.028471 -0.372921,-0.113543 -0.372921,-0.314251s-0.199844,0.37105 -0.087181,0.541513c0.115837,0.170521 -0.228443,0.370993 -0.341129,0.370993s-0.199833,-0.254061 -0.171429,-0.51128c0.03035,-0.255836 -0.169464,-0.484818 -0.487038,-0.454628c-0.31424,0.030029 -0.458614,0.284094 -0.571316,0.36937c-0.115826,0.085258 -0.115826,0.568047 -0.087128,0.683514s0.028423,0.514755 -0.255444,0.484467c-0.26025,-0.028221 -0.203182,-0.511234 -0.174843,-0.683544c0.03207,-0.171928 -0.085407,-0.598238 0.03207,-0.823776c0.115837,-0.227392 0.455261,-0.314013 0.687134,-0.342525s0.71209,0.143713 0.799519,0.115133c0.087395,-0.031509 0.488693,-0.031509 0.68544,0c0.2015,0.023493 0.4856,0.536535 0.344265,0.565016zm0.512592,0.085279c0.08881,0.056707 0.685398,-0.085279 0.801224,0.056707c0.112621,0.14208 -0.117538,0.170568 -0.401638,0.28409c-0.283833,0.113733 -0.372932,0.085262 -0.48708,0.228952s-0.487244,0.197332 -0.658421,0.367647c-0.171429,0.172195 -0.477104,0.274117 -0.541004,0.142233c-0.089046,-0.170536 0.028484,-0.085238 0.05368,-0.170536c0.028679,-0.085207 0.539257,-0.282516 0.539257,-0.282516s0.608189,-0.683386 0.693981,-0.626577zm-2.28653,-0.99778c-0.083946,0.030155 -0.401508,-0.056831 -0.661785,-0.056831c-0.255466,0 -0.199844,-0.170477 -0.31424,-0.138561c-0.112396,0.02824 -0.369465,0.085228 -0.544319,0.170479c-0.171169,0.085062 -0.458397,0.065004 -0.458397,-0.088652c0,-0.227242 0.115883,-0.170515 0.487019,-0.312508c0.372944,-0.141975 0.77623,-0.541538 0.944077,-0.370993c0.173042,0.172184 0.487267,0.370993 0.687073,0.399479c0.203205,0.029922 -0.057072,0.369345 -0.139427,0.397587zm-2.926369,-8.828537c-0.174625,0.056767 -0.764351,0.304108 -0.707325,0.435915c0.021896,0.050243 0.171452,0.150562 0.418442,0.113796c0.248585,-0.040096 0.608196,-0.076836 0.781055,-0.093466c0.171356,-0.02033 0.209953,-0.305986 0.020367,-0.322721c-0.191593,-0.020018 -0.344604,-0.190577 -0.512539,-0.133524zm-2.116703,0.227247c-0.134289,0.056828 -0.535877,-0.093723 -0.744255,0.040089c-0.134212,0.083605 -0.057026,0.359243 0.15472,0.375858c0.208317,0.020031 0.569359,-0.130146 0.606525,-0.016615c0.040295,0.113714 0.172901,0.62668 0.515697,0.454512c0.344311,-0.170538 0.32412,-0.320732 0.418365,-0.340797c0.095631,-0.020008 -0.017033,-0.436186 -0.171467,-0.533075c-0.151291,-0.093712 -0.646824,-0.036917 -0.779587,0.020029zm-0.688595,-1.611004c0.036949,0.095166 -0.018459,0.170528 0.248611,0.20724c0.265404,0.040076 0.381237,0.07681 0.534149,0.07681c0.15276,0 0.092316,-0.247298 -0.038574,-0.416167c-0.134518,-0.170558 -0.095932,-0.150502 -0.438496,-0.247288c-0.344341,-0.09519 -0.687141,-0.09519 -0.915588,-0.076885c-0.230154,0.020056 -0.478817,-0.036654 -0.535885,0.227287c-0.028656,0.136957 0.154419,0.245697 0.382938,0.245697s0.724194,-0.112125 0.762844,-0.016694zm0.497208,1.041002c0.093979,0.208946 0.093979,0.112095 0.362804,0.133795c0.263638,0.020044 0.473663,-0.263945 0.493786,-0.359362c0.020206,-0.095158 -0.134235,-0.284067 -0.495537,-0.247307c-0.362724,0.038368 -1.468159,-0.056801 -1.621105,0.075302c-0.144497,0.126818 0,0.509666 -0.057108,0.549692c-0.057032,0.036789 0.020174,0.207251 0.169767,0.170603c0.15123,-0.037022 0.228447,-0.397871 0.345898,-0.397871c0.114414,0.00173 0.707329,-0.132086 0.801495,0.075148zm-3.586601,-0.777016c0.114176,0.095203 0.403038,0.01836 0.381184,-0.07682c-0.018398,-0.093705 0.116104,-0.474586 -0.112335,-0.492903c-0.230255,-0.016974 -0.551208,0.210305 -0.897213,0.324072c-0.221653,0.073427 -0.171381,0.285755 -0.020155,0.285755s0.535881,-0.133562 0.64852,-0.040104zm1.624338,0.34251c-0.191339,0.093727 -0.250309,0.150444 -0.419758,0.113781c-0.173136,-0.036793 -0.173136,-0.342768 -0.478813,-0.285775c-0.304224,0.058484 -0.361267,0.228948 -0.455217,0.3058s-0.305996,0.133585 -0.381472,0.093466c-0.073818,-0.036755 -0.514013,-0.282356 -0.514013,-0.282356s-0.917246,-0.040085 -0.95418,-0.153849c-0.036888,-0.113514 -0.189896,-0.302398 -0.60994,-0.26402s-1.145493,0.284318 -1.259844,0.284318c-0.114174,0 0.136171,0.227026 -0.020206,0.227026c-0.151241,0 -0.340853,-0.016649 -0.398149,0.152126c-0.03863,0.115461 0.171417,0.113838 0.41663,0.113838c0.246916,0 0.650215,0 0.764334,-0.05703c0.114401,-0.056808 0.687103,-0.190372 0.666943,-0.020054c-0.020103,0.173882 0.228548,0.436218 0.36128,0.399483c0.1343,-0.03841 0.403069,-0.285702 0.534161,-0.188847c0.134523,0.093714 0.154682,0.319321 0.287273,0.3794c0.134523,0.053432 0.497236,0.053432 0.668669,0c0.169695,-0.06008 0.648474,-0.06008 0.856823,-0.020035c0.209759,0.038408 0.821369,0.150288 0.878361,0.038408c0.057119,-0.115475 0.228525,-0.13382 0.246994,-0.247337s0.112659,-0.472866 0.112659,-0.472866s-0.112659,-0.210648 -0.302534,-0.115479zm9.656111,19.619324c-0.261936,0.04509 -0.201534,0.551643 0.114304,0.459602c0.31419,-0.09182 0.144497,-0.507988 -0.114304,-0.459602zm2.487885,-0.680229c-0.230129,-0.056717 -0.486977,0 -0.658428,0.028587c-0.171417,0.03017 -0.658443,0.456223 -0.658443,0.456223s0.314217,0.056698 0.51226,0.056698c0.203255,0 0.317635,0.112053 0.487335,0.197376c0.17115,0.08844 0.48698,-0.113796 0.597935,-0.113796c0.117577,0 0.260372,0.341072 0.288982,-0.028225c0.031788,-0.370964 -0.341106,-0.538105 -0.569641,-0.596863zm-7.96936,-18.446163c-0.09417,-0.228739 -0.56955,-0.305746 -0.668633,-0.076752c-0.08403,0.199039 0.764351,0.304028 0.668633,0.076752zm5.454773,17.052486c0.313896,-0.058414 0.141006,-0.315857 -0.117779,-0.285671c-0.258579,0.028446 -0.199821,0.342503 0.117779,0.285671zm3.801468,1.758167c-0.261997,0.048351 -0.201519,0.554829 0.11272,0.462833c0.317245,-0.09185 0.146095,-0.507973 -0.11272,-0.462833zm-3.462307,-0.84726c-0.198154,0.028469 -0.628132,-0.197346 -0.856575,-0.399548c-0.2285,-0.198792 -0.658741,-0.198792 -0.82988,-0.198792c-0.169731,0 -0.858566,0.198792 -0.858566,0.198792c-0.03006,0.285774 0.257076,0.200737 0.59967,0.200737s0.945744,-0.058643 1.055019,0.085037c0.117699,0.140556 0.630013,0.36779 0.776207,0.482998c0.139336,0.113544 0.598034,0.142132 0.626442,0.028492s-0.312237,-0.426239 -0.512318,-0.397717zm-3.411793,-18.172085c-0.285511,-0.020048 -0.648544,-0.020048 -0.878693,0c-0.228516,0.018404 -0.399666,-0.150434 -0.571068,-0.247307c-0.169785,-0.093708 -0.552612,-0.399446 -0.779671,-0.436191c-0.229866,-0.036712 -0.189507,-0.036712 -0.668427,-0.15045c-0.242001,-0.06013 -0.64674,-0.133554 -0.64674,-0.188908c0,-0.056791 -0.114338,0.265661 0.095703,0.361083c0.208248,0.09517 0.551037,0.265718 0.797985,0.359198c0.252026,0.095322 0.725773,0.113754 0.878498,0.304031c0.152866,0.188881 0.666912,0.34276 0.666912,0.34276l0.609901,0.056784c0,0 0.421516,-0.09346 0.860062,-0.056784c0.438469,0.03673 1.085331,0.093443 1.449699,0.076799c0.359562,-0.018303 0.416626,-0.133514 0.45871,-0.208927c0.035164,-0.076824 -0.668705,-0.227261 -0.843304,-0.207203c-0.168003,0.013517 -1.145771,0.013517 -1.429569,-0.004887zm1.066578,4.363323c-0.075489,0.085285 0.346241,0.208931 0.420078,0.093491c0.075493,-0.110121 -0.22509,-0.302452 -0.420078,-0.093491zm1.281994,0.396137c0.187958,-0.077047 0.093998,-0.304289 -0.174847,-0.227295c-0.303936,0.086729 -0.020176,0.304115 0.174847,0.227295z" stroke-width="0.4" stroke="&stroke_color;" fill="&fill_color;"/>
 </g>
</svg>
